<?xml version="1.0" standalone="no"?>
<!DOCTYPE svg PUBLIC "-//W3C//DTD SVG 20010904//EN"
"http://www.w3.org/TR/2001/REC-SVG-20010904/DTD/svg10.dtd">
<svg version="1.0" xmlns="http://www.w3.org/2000/svg"
width="472.000000pt" height="472.000000pt" viewBox="0 0 472.000000 472.000000"
preserveAspectRatio="xMidYMid meet" >

<g transform="translate(0.000000,472.000000) scale(0.100000,-0.100000)"
fill="#77518E" stroke="none">
<path d="M309 4361 c-22 -17 -24 -28 -32 -186 -5 -91 -6 -177 -3 -190 16 -64
216 -59 216 6 0 24 -60 25 685 -11 341 -16 1184 -57 1874 -90 l1254 -60 121
36 c66 20 129 43 139 52 18 16 23 58 9 79 -4 7 -64 35 -132 64 l-124 51 -1315
64 c-724 35 -1570 75 -1881 89 -311 15 -574 28 -585 31 -11 2 -27 18 -35 36
-17 36 -39 46 -116 47 -37 1 -59 -4 -75 -18z m138 -198 c-3 -86 -10 -159 -14
-164 -4 -4 -31 -5 -60 -2 l-51 5 4 97 c3 53 7 124 10 159 l6 62 55 0 56 0 -6
-157z m428 62 c165 -8 768 -38 1340 -65 572 -28 1276 -62 1564 -76 l525 -25
113 -46 c62 -26 113 -49 113 -53 0 -4 -55 -22 -122 -42 l-123 -35 -160 9
c-253 13 -2823 136 -3210 153 -192 9 -365 18 -382 21 l-33 5 0 78 c0 43 3 81
7 84 9 9 26 9 368 -8z"/>
<path d="M4292 3710 c-13 -6 -28 -23 -33 -40 -6 -16 -12 -30 -12 -31 -1 0 -85
-4 -187 -9 l-185 -8 -42 39 c-53 49 -97 53 -137 13 -14 -15 -26 -35 -26 -45 0
-16 -8 -19 -47 -19 -42 0 -53 5 -82 35 -27 28 -41 35 -73 35 -41 0 -88 -34
-88 -65 0 -22 -98 -22 -106 0 -4 9 -26 27 -50 41 -33 19 -51 24 -74 19 -30 -7
-70 -47 -70 -71 0 -20 -99 -19 -106 1 -8 21 -67 55 -95 55 -32 0 -68 -26 -79
-56 -8 -21 -16 -24 -56 -24 -39 0 -53 6 -87 36 -34 31 -44 35 -74 31 -41 -7
-62 -22 -74 -54 -7 -19 -16 -23 -50 -23 -33 0 -49 7 -80 35 -30 27 -48 35 -77
35 -40 0 -76 -24 -87 -58 -4 -13 -19 -22 -47 -26 -38 -6 -44 -4 -80 31 -29 28
-46 37 -73 37 -35 0 -85 -35 -85 -60 0 -15 -23 -24 -62 -24 -21 0 -43 11 -69
35 -63 56 -137 44 -162 -27 -5 -14 -18 -18 -53 -18 -39 0 -53 6 -85 35 -59 53
-135 43 -159 -21 -9 -22 -15 -24 -73 -24 -57 0 -66 3 -92 30 -51 53 -131 48
-157 -10 -11 -26 -15 -28 -102 -34 -50 -3 -174 -8 -276 -11 l-185 -7 -127 -50
c-70 -27 -132 -56 -139 -64 -16 -19 -15 -63 2 -79 8 -8 73 -31 144 -52 l130
-39 270 11 c149 6 271 10 273 9 4 -2 23 -106 24 -129 0 -11 -3 -32 -7 -46 -4
-17 -1 -40 10 -64 13 -27 15 -39 6 -48 -15 -15 -13 -78 3 -100 11 -14 11 -24
-2 -61 -15 -41 -15 -45 5 -78 17 -30 18 -37 7 -53 -18 -25 -18 -75 1 -102 13
-19 13 -25 -1 -58 -14 -34 -14 -40 4 -75 16 -33 17 -42 6 -62 -18 -31 -17 -69
1 -96 12 -16 13 -27 5 -41 -15 -28 -12 -78 5 -105 14 -20 13 -26 -1 -54 -17
-35 -12 -83 11 -102 13 -11 13 -15 0 -33 -20 -28 -19 -77 1 -105 14 -21 14
-26 -1 -58 -13 -28 -14 -41 -5 -69 6 -19 16 -37 21 -41 5 -3 3 -15 -6 -27 -19
-28 -19 -60 1 -99 11 -22 13 -33 5 -41 -15 -15 -14 -80 3 -102 11 -15 11 -22
0 -44 -18 -34 -17 -55 1 -92 12 -21 13 -34 5 -48 -14 -28 -12 -73 5 -98 13
-18 13 -24 -1 -52 -17 -34 -12 -82 11 -101 13 -11 13 -15 0 -33 -29 -41 -13
-105 35 -145 8 -7 38 -24 65 -39 68 -36 169 -38 236 -5 44 22 47 22 85 6 56
-24 148 -22 209 5 48 20 53 21 88 6 59 -24 164 -20 223 10 48 24 50 24 84 8
55 -27 145 -29 208 -5 50 19 56 19 99 5 53 -18 145 -13 194 11 29 14 36 14 81
-1 61 -19 141 -13 202 17 l44 21 63 -21 c76 -26 144 -21 216 15 42 22 52 23
91 13 70 -17 156 -5 215 32 l51 32 43 -21 c24 -12 63 -21 87 -21 l43 0 6 -187
c8 -245 27 -363 59 -363 22 0 148 63 148 74 0 6 -7 47 -15 91 -8 44 -17 143
-21 220 -6 131 -5 146 20 238 26 98 26 136 0 158 -12 9 -11 14 1 32 19 27 19
77 0 104 -13 19 -13 25 1 59 14 34 14 40 -1 74 -13 29 -14 42 -6 58 15 29 14
64 -4 90 -12 16 -13 27 -5 41 14 28 13 84 -4 106 -11 15 -11 22 0 44 18 34 17
55 -1 92 -12 21 -13 34 -5 48 15 28 12 82 -5 101 -12 14 -12 21 2 61 16 44 16
47 -4 81 -17 30 -18 37 -7 53 19 25 18 75 -2 104 -13 17 -14 28 -6 44 21 44
22 60 6 93 -13 28 -14 40 -5 60 16 35 14 66 -6 93 -13 19 -14 28 -5 42 17 27
15 94 -3 109 -13 11 -13 15 0 41 20 38 19 71 -4 100 -17 22 -17 27 -5 44 18
24 18 84 0 108 -12 15 -12 24 1 56 14 35 13 42 -2 74 -13 27 -14 40 -6 56 15
28 14 73 -3 97 -10 13 -11 25 -5 35 5 8 9 28 9 45 l0 31 83 6 c45 4 124 7 175
7 89 0 93 -1 102 -24 14 -38 45 -49 118 -43 106 8 107 9 96 227 -8 162 -12
183 -29 196 -21 16 -127 18 -163 4z m126 -52 c5 -7 12 -82 14 -165 l5 -153
-57 0 -57 0 -6 83 c-4 45 -7 117 -7 159 l0 77 43 4 c23 2 45 4 48 5 4 1 11 -4
17 -10z m-620 -41 c32 -33 52 -90 52 -145 0 -57 -2 -61 -35 -54 -23 4 -25 9
-25 54 0 52 -10 79 -43 115 -22 25 -17 53 11 53 10 0 28 -10 40 -23z m-578
-35 c40 -40 60 -91 60 -155 0 -36 -2 -38 -27 -35 -25 3 -29 8 -34 54 -8 60
-21 89 -54 110 -24 16 -33 43 -18 57 14 15 37 5 73 -31z m288 15 c31 -33 52
-90 52 -141 0 -49 -9 -61 -40 -51 -16 5 -20 15 -20 51 0 48 -11 76 -43 111
-22 25 -17 53 11 53 10 0 28 -10 40 -23z m-591 -19 c36 -40 53 -85 53 -143 0
-51 -2 -55 -24 -55 -21 0 -24 6 -30 52 -8 57 -18 82 -49 115 -22 25 -17 53 11
53 10 0 28 -10 39 -22z m-290 -10 c36 -40 53 -85 53 -143 0 -52 -1 -55 -25
-55 -21 0 -25 5 -25 28 0 45 -19 99 -45 131 -43 50 -2 87 42 39z m-282 -10
c37 -29 65 -93 65 -150 0 -43 -2 -48 -23 -48 -20 0 -25 8 -36 62 -10 49 -20
68 -48 94 -58 53 -20 91 42 42z m1915 -62 l0 -84 -72 -6 c-40 -3 -120 -7 -178
-9 l-105 -2 0 87 0 87 65 4 c36 2 116 4 178 5 l112 2 0 -84z m-2205 39 c22
-23 37 -52 44 -84 13 -61 5 -115 -16 -107 -8 4 -19 6 -24 6 -5 0 -9 17 -9 38
0 41 -28 110 -53 131 -13 10 -14 18 -6 32 14 27 27 24 64 -16z m-266 -45 c19
-34 25 -58 24 -107 0 -35 -3 -66 -6 -69 -3 -3 -15 -3 -26 1 -17 5 -21 15 -21
53 0 48 -31 132 -48 132 -18 0 -21 29 -5 45 13 14 18 14 37 2 11 -8 32 -34 45
-57z m1918 48 c35 -32 33 -109 -3 -137 -15 -12 -41 -21 -58 -21 l-31 0 -1 90
0 90 35 0 c22 0 43 -8 58 -22z m-292 -14 c36 -38 36 -115 0 -138 -13 -9 -35
-16 -48 -16 -22 0 -25 5 -30 68 -4 37 -9 77 -13 90 -6 20 -3 22 30 22 27 0 44
-7 61 -26z m-1971 10 c41 -16 80 -121 70 -190 -5 -37 -8 -40 -30 -36 -21 4
-24 10 -24 48 0 52 -13 87 -45 126 -35 41 -19 70 29 52z m1672 -12 c26 -22 39
-47 47 -89 6 -28 2 -34 -29 -52 -19 -12 -52 -21 -72 -21 l-37 0 0 90 -1 90 36
0 c19 -1 44 -9 56 -18z m-1977 -21 c29 -32 51 -90 51 -139 0 -45 -9 -62 -35
-62 -21 0 -23 5 -27 65 -3 53 -9 70 -31 93 -26 27 -34 52 -20 65 13 14 36 6
62 -22z m1678 10 c27 -22 43 -61 43 -101 0 -35 -35 -60 -85 -60 l-35 0 0 63
c0 34 -3 72 -6 84 -5 17 -1 22 18 26 39 7 42 7 65 -12z m-278 -25 c14 -15 25
-42 28 -69 5 -38 2 -47 -18 -61 -13 -9 -35 -16 -50 -16 -26 0 -27 2 -31 68 -3
37 -8 75 -13 85 -12 29 56 23 84 -7z m-277 -13 c15 -16 29 -46 33 -69 6 -36 3
-44 -17 -58 -13 -9 -43 -16 -70 -16 l-48 0 0 69 c0 38 -3 76 -6 85 -5 13 2 16
38 16 35 0 49 -6 70 -27z m-298 -14 c35 -41 36 -100 2 -122 -12 -9 -39 -19
-60 -22 l-36 -7 0 75 c0 41 -3 82 -6 91 -5 13 2 16 34 16 33 0 45 -6 66 -31z
m-290 -10 c19 -22 26 -42 26 -73 0 -35 -4 -44 -29 -59 -16 -9 -45 -17 -65 -17
l-36 0 0 74 c0 41 -3 81 -6 90 -5 13 2 16 39 16 38 0 49 -5 71 -31z m-300 -10
c19 -23 26 -42 26 -74 0 -57 -24 -75 -102 -75 l-57 0 6 48 c3 26 1 64 -5 84
-11 42 -8 45 65 47 35 1 45 -4 67 -30z m-330 -10 c19 -22 26 -42 26 -73 0 -74
2 -73 -321 -87 l-285 -11 -118 37 c-66 20 -115 40 -110 45 5 5 56 27 114 51
l105 42 275 12 c151 7 278 13 282 14 3 0 18 -13 32 -30z m2786 -84 c24 -29 4
-46 -47 -43 -37 2 -49 7 -51 22 -2 10 2 22 10 27 21 14 74 10 88 -6z m-290
-10 c23 -28 4 -45 -50 -45 -46 0 -50 2 -50 24 0 19 6 26 28 29 52 8 60 7 72
-8z m-285 -30 c0 -15 -9 -21 -40 -26 -48 -8 -65 -3 -65 20 0 27 11 32 60 29
37 -2 45 -6 45 -23z m412 19 c-3 -3 -12 -4 -19 -1 -8 3 -5 6 6 6 11 1 17 -2
13 -5z m-709 -28 c5 -23 -14 -36 -54 -36 -35 0 -59 22 -50 45 9 25 100 17 104
-9z m420 12 c-7 -20 -58 -23 -58 -4 0 11 10 16 31 16 20 0 29 -4 27 -12z
m-704 -14 c10 -26 -13 -44 -56 -44 -40 0 -56 16 -44 45 8 22 92 21 100 -1z
m416 -8 c0 -17 -7 -26 -25 -30 -33 -8 -45 -1 -45 30 0 21 5 24 35 24 30 0 35
-3 35 -24z m-695 -16 c0 -22 -5 -25 -43 -28 -44 -3 -61 11 -48 44 4 11 17 14
48 12 38 -3 43 -6 43 -28z m395 10 c0 -18 -26 -40 -49 -40 -18 0 -12 38 7 49
27 16 42 13 42 -9z m-711 -4 c23 -27 2 -46 -50 -46 -45 0 -49 2 -49 24 0 13 6
27 13 29 25 11 75 7 86 -7z m409 -21 c-6 -14 -15 -25 -20 -25 -4 0 -8 11 -8
25 0 18 5 25 20 25 17 0 18 -3 8 -25z m1182 3 c25 -5 63 -13 85 -17 l40 -8
-37 -16 c-56 -25 -121 -22 -155 7 -23 20 -25 26 -14 40 7 9 18 13 24 9 6 -4
32 -11 57 -15z m-1452 -13 c-8 -18 -19 -25 -39 -25 -31 0 -42 11 -33 34 4 11
19 16 45 16 38 0 38 -1 27 -25z m-440 -9 c5 -23 -14 -36 -54 -36 -35 0 -59 22
-50 45 9 25 100 17 104 -9z m142 11 c0 -21 -22 -37 -52 -37 -20 0 -28 5 -28
18 0 26 9 32 47 32 20 0 33 -5 33 -13z m-432 -24 c-3 -25 -7 -28 -46 -31 -31
-2 -44 1 -48 12 -12 32 4 46 51 46 45 0 46 -1 43 -27z m122 7 c0 -12 -9 -24
-22 -29 -30 -11 -38 -6 -38 25 0 20 5 24 30 24 23 0 30 -4 30 -20z m-435 -20
c0 -23 -4 -25 -48 -28 -36 -2 -49 1 -53 13 -11 27 16 46 60 43 36 -3 41 -6 41
-28z m155 22 c0 -19 -27 -42 -57 -48 -32 -6 -33 -5 -33 25 0 30 1 31 45 31 25
0 45 -4 45 -8z m2129 -8 c8 -8 -34 -34 -74 -45 -36 -10 -110 -8 -122 4 -3 3
-2 15 2 26 5 16 16 21 63 24 56 4 123 -1 131 -9z m-591 -41 c-18 -22 -78 -50
-125 -58 -35 -5 -45 -3 -63 15 -30 30 -12 50 38 43 24 -2 49 2 72 14 26 14 42
17 63 10 23 -8 26 -12 15 -24z m322 29 c0 -31 -88 -72 -153 -72 -43 0 -58 5
-75 23 -33 35 -16 50 41 37 35 -7 55 -7 84 4 44 16 103 20 103 8z m-612 -18
c32 -9 27 -20 -20 -48 -59 -34 -129 -43 -152 -21 -30 31 -16 50 34 48 25 -2
59 4 75 11 36 17 35 17 63 10z m1282 -18 c0 -32 -68 -92 -122 -106 -81 -22
-168 12 -168 67 0 28 -3 28 45 3 66 -34 114 -26 190 30 49 36 55 37 55 6z
m-1546 5 c18 -7 16 -10 -15 -33 -67 -51 -166 -60 -204 -18 -22 24 -13 55 13
45 39 -16 99 -17 128 -2 32 18 49 19 78 8z m-304 -18 c7 -7 -29 -32 -75 -54
-53 -25 -116 -25 -146 0 -35 29 -13 45 58 43 35 -1 68 4 83 13 22 12 65 11 80
-2z m1500 -17 c0 -26 -55 -81 -97 -97 -27 -10 -136 -12 -146 -3 -3 3 -1 16 4
28 9 19 18 22 62 22 45 -1 61 5 107 36 30 20 58 37 63 38 4 0 7 -11 7 -24z
m-1821 -6 c9 -5 2 -14 -25 -31 -50 -30 -152 -39 -177 -15 -30 30 -10 46 57 46
33 0 68 5 76 10 14 9 40 6 69 -10z m-314 0 c32 -12 26 -24 -25 -50 -54 -28
-138 -27 -193 2 l-42 22 45 8 c25 5 61 6 80 4 27 -4 85 8 107 23 1 0 14 -3 28
-9z m1845 -29 c0 -28 -73 -88 -122 -101 -81 -22 -158 4 -143 48 5 18 10 20 31
12 55 -21 108 -12 165 28 56 41 69 43 69 13z m-316 0 c11 -17 -40 -76 -84 -98
-59 -30 -136 -32 -145 -3 -10 31 2 40 58 40 43 0 60 6 101 35 52 37 61 40 70
26z m-284 -52 c-6 -10 -29 -31 -51 -46 -50 -33 -147 -44 -167 -20 -20 24 -4
49 32 46 62 -4 84 2 121 31 30 24 41 27 56 19 16 -8 17 -14 9 -30z m-270 3 c0
-13 -52 -58 -87 -76 -71 -36 -195 -10 -177 37 5 15 12 17 38 10 58 -14 106 -6
150 25 31 23 45 28 59 21 9 -5 17 -13 17 -17z m-310 8 c0 -23 -35 -62 -78 -87
-76 -45 -210 -33 -183 16 7 12 25 16 74 16 57 0 70 4 108 32 44 32 79 42 79
23z m-311 -9 c30 -19 -39 -87 -113 -111 -71 -23 -156 2 -136 40 8 15 19 17 67
13 54 -5 61 -3 108 30 56 40 55 40 74 28z m-455 -69 c37 3 63 13 94 36 39 28
72 33 72 12 0 -19 -57 -74 -95 -91 -22 -10 -60 -19 -85 -19 -84 0 -193 71
-177 114 5 12 19 8 73 -21 58 -30 74 -35 118 -31z m2594 44 c5 -25 -66 -89
-115 -104 -58 -17 -93 -15 -138 9 -50 27 -47 22 -40 51 l6 25 37 -18 c41 -21
103 -25 135 -7 12 6 38 24 57 40 37 30 53 31 58 4z m-348 -25 c0 -55 -94 -114
-182 -114 -32 0 -60 2 -63 5 -4 3 -3 18 1 32 6 24 10 26 36 21 47 -11 92 3
139 40 49 39 69 44 69 16z m-290 -36 c0 -7 -12 -28 -27 -46 -56 -66 -166 -89
-223 -47 -24 17 -27 25 -19 40 8 14 14 16 29 8 10 -5 40 -10 67 -10 41 0 57 6
102 40 52 39 71 43 71 15z m-320 -11 c0 -28 -39 -72 -83 -93 -78 -38 -184 -20
-147 24 7 9 25 15 39 14 58 -4 81 3 121 36 45 38 70 44 70 19z m-290 -14 c19
-12 7 -33 -43 -74 -65 -52 -194 -45 -173 10 4 11 14 13 40 9 37 -7 110 19 135
48 16 19 20 20 41 7z m-580 -23 c0 -47 -105 -117 -177 -117 -24 0 -83 28 -83
40 1 19 23 26 81 26 61 -1 69 2 114 37 56 43 65 45 65 14z m309 9 c28 -34 -76
-106 -158 -108 -49 -1 -101 23 -101 48 0 21 13 24 59 12 53 -13 107 1 141 37
26 28 42 31 59 11z m-613 -20 c10 -25 -26 -65 -82 -92 -44 -21 -64 -26 -105
-22 -57 6 -74 17 -65 46 6 18 13 19 64 15 63 -6 101 7 136 46 22 24 44 27 52
7z m-559 -42 c26 -18 49 -24 87 -24 49 0 61 5 130 54 35 25 55 9 38 -28 -29
-64 -153 -104 -237 -76 -45 15 -105 66 -105 89 0 37 14 35 87 -15z m2693 12
c0 -50 -92 -106 -175 -106 -73 0 -115 23 -115 62 0 27 13 37 24 19 3 -5 27
-14 53 -20 61 -14 100 -3 155 43 44 38 58 38 58 2z m-347 -34 c-20 -56 -100
-101 -180 -102 -29 0 -53 2 -53 4 0 3 4 16 10 30 8 23 15 26 59 26 44 0 55 5
96 40 36 31 50 38 60 30 8 -6 11 -19 8 -28z m-883 -59 c0 -24 -63 -78 -107
-91 -81 -24 -137 -8 -109 31 9 11 27 17 50 17 41 0 82 18 109 48 20 22 57 19
57 -5z m-894 -18 c9 -22 -33 -73 -79 -96 -26 -14 -60 -21 -98 -22 -68 0 -94
15 -78 45 9 17 17 19 58 13 56 -8 103 9 140 49 27 29 49 33 57 11z m-307 -4
c36 -23 -39 -100 -118 -121 -71 -19 -157 7 -210 64 -42 45 -8 75 42 36 84 -67
172 -65 236 4 27 29 30 30 50 17z m2441 -27 c0 -54 -93 -115 -174 -116 -71 -1
-126 30 -119 67 5 23 7 24 32 11 74 -39 148 -28 199 29 30 35 62 39 62 9z
m-352 -27 c10 -51 -89 -117 -176 -117 -54 0 -55 1 -46 38 5 19 13 22 51 22 52
0 78 12 116 52 29 31 50 33 55 5z m-880 -58 c4 -24 -47 -79 -93 -100 -49 -23
-108 -24 -125 -4 -20 25 5 45 57 45 37 0 50 6 86 40 43 41 69 47 75 19z m-898
-29 c17 -31 -48 -96 -116 -116 -84 -24 -167 2 -134 42 10 11 23 14 51 9 58
-10 94 2 139 46 22 21 42 39 45 39 2 0 9 -9 15 -20z m-297 -12 c8 -22 -26 -69
-68 -93 -80 -48 -165 -42 -244 15 -31 23 -41 37 -39 53 5 32 30 32 72 -2 70
-55 159 -53 211 4 31 35 60 44 68 23z m2430 -12 c17 -45 -95 -126 -175 -126
-70 0 -124 35 -114 74 l6 26 33 -20 c36 -22 106 -26 140 -9 12 7 37 25 55 40
37 32 47 35 55 15z m-348 -26 c12 -19 -26 -70 -71 -96 -32 -19 -60 -27 -99
-28 -29 0 -56 2 -60 5 -3 4 -1 18 6 31 8 18 17 24 30 21 35 -10 88 8 129 42
44 37 55 41 65 25z m-1777 -104 c5 -26 -54 -83 -105 -102 -47 -18 -123 -15
-148 6 -11 9 -12 16 -3 30 10 15 20 18 59 13 63 -7 87 0 134 42 41 37 58 40
63 11z m-561 -42 c62 -41 157 -30 207 25 40 44 72 12 37 -38 -29 -41 -96 -71
-157 -71 -91 0 -206 76 -174 115 13 16 23 13 87 -31z m2693 17 c0 -53 -93
-113 -176 -115 -66 -1 -123 34 -116 71 2 12 5 23 6 23 1 0 19 -9 41 -20 65
-33 134 -21 184 34 29 31 61 35 61 7z m-350 -30 c0 -29 -40 -72 -84 -92 -45
-20 -146 -26 -146 -8 0 26 22 50 40 44 32 -10 89 12 131 50 41 36 59 38 59 6z
m-1775 -81 c12 -19 -26 -70 -72 -97 -81 -47 -210 -34 -182 19 9 16 17 18 54
12 55 -8 104 8 140 46 29 31 49 37 60 20z m-311 -6 c9 -3 16 -11 16 -16 0 -26
-48 -73 -98 -96 -44 -20 -64 -23 -104 -19 -89 11 -183 86 -150 119 13 13 39 3
84 -33 35 -28 114 -37 154 -16 16 8 40 27 53 41 28 29 24 28 45 20z m2441 -14
c9 -15 -21 -66 -52 -88 -65 -46 -170 -53 -221 -14 -18 14 -22 24 -17 44 l6 25
37 -18 c41 -21 103 -25 135 -8 12 7 37 25 55 40 35 31 47 35 57 19z m-349 -34
c3 -8 -2 -26 -11 -40 -34 -52 -128 -91 -191 -80 -30 5 -31 7 -21 34 7 19 16
26 29 22 34 -9 87 9 128 43 46 38 58 42 66 21z m-1776 -100 c0 -57 -113 -123
-196 -113 -53 6 -68 17 -60 45 6 18 13 19 69 15 60 -5 63 -4 117 36 30 22 58
41 62 41 5 0 8 -11 8 -24z m-563 -42 c26 -17 49 -24 85 -24 54 0 80 10 120 48
27 25 58 25 58 -1 0 -48 -97 -107 -176 -107 -91 0 -189 66 -170 115 6 18 18
14 83 -31z m2693 12 c0 -31 -67 -91 -117 -105 -56 -16 -91 -13 -138 10 -36 18
-41 24 -37 49 l4 29 36 -20 c66 -35 161 -17 197 37 21 32 55 32 55 0z m-350
-30 c0 -55 -123 -124 -197 -110 -35 7 -36 8 -24 37 5 15 19 19 58 21 45 1 56
6 97 44 48 44 66 47 66 8z m-1772 -89 c5 -26 -66 -93 -113 -106 -51 -14 -84
-14 -124 0 -34 12 -36 17 -18 39 8 11 32 15 79 15 65 0 69 2 105 38 40 39 65
44 71 14z m-314 7 c23 -9 20 -28 -11 -65 -35 -41 -96 -69 -153 -69 -84 0 -193
71 -176 115 9 23 32 18 72 -17 31 -27 46 -33 99 -36 63 -4 64 -4 107 37 24 22
44 41 45 41 1 0 8 -3 17 -6z m2442 -29 c3 -8 -4 -28 -16 -45 -40 -56 -138 -90
-207 -70 -55 15 -72 31 -66 62 l5 26 41 -19 c71 -32 136 -19 186 35 27 29 49
33 57 11z m-348 -28 c5 -27 -34 -73 -81 -96 -44 -21 -150 -30 -161 -13 -3 5
-2 19 1 31 5 20 11 22 40 18 55 -9 90 2 136 44 43 40 60 44 65 16z m-288 -44
c0 -27 -74 -89 -123 -103 -47 -13 -132 -7 -142 10 -3 5 0 18 6 29 11 16 21 18
64 14 60 -6 103 12 136 57 18 23 26 27 41 19 10 -5 18 -17 18 -26z m-1192 -44
c2 -19 -7 -35 -36 -61 -47 -42 -117 -61 -176 -48 -47 10 -50 13 -41 40 6 19
12 21 54 15 60 -8 110 11 142 54 27 37 53 37 57 0z m-298 -13 c0 -32 -68 -92
-121 -106 -44 -12 -124 -6 -134 11 -4 5 -3 18 0 30 6 17 12 19 50 13 61 -9 98
2 140 42 43 40 65 44 65 10z m-302 -10 c10 -47 -93 -116 -173 -116 -45 0 -131
37 -158 68 -37 41 -1 81 39 43 75 -70 180 -68 242 4 25 28 45 29 50 1z m2432
-20 c0 -28 -66 -92 -107 -103 -80 -21 -183 9 -183 53 0 31 7 33 48 13 65 -34
152 -16 187 37 21 32 55 32 55 0z m-340 -27 c0 -17 -66 -83 -97 -95 -35 -15
-139 -19 -147 -6 -3 5 -2 19 1 31 5 20 10 22 42 16 47 -8 84 7 133 51 32 28
42 33 54 23 8 -6 14 -15 14 -20z m-300 -32 c0 -27 -38 -70 -83 -94 -37 -20
-150 -24 -167 -7 -9 9 -9 17 -1 31 9 17 18 19 60 15 60 -5 99 9 135 49 31 35
56 38 56 6z m-1180 -47 c0 -54 -95 -113 -182 -113 -66 0 -93 15 -77 45 9 16
17 18 54 12 57 -8 103 8 144 50 34 35 61 38 61 6z m-302 -13 c6 -28 -67 -91
-121 -107 -47 -13 -111 -7 -134 12 -9 7 -9 14 0 29 10 16 19 18 63 13 57 -7
93 7 134 50 27 29 53 31 58 3z m-300 -13 c4 -29 -66 -90 -120 -104 -56 -16
-121 -6 -175 25 -47 28 -66 55 -57 79 9 23 27 20 69 -14 69 -55 156 -53 215 5
38 38 63 42 68 9z m2430 -8 c5 -24 -43 -74 -93 -97 -58 -27 -121 -25 -166 6
-28 20 -35 31 -32 50 l5 23 32 -19 c39 -24 122 -26 154 -3 13 9 35 27 49 40
29 27 46 27 51 0z m-348 -30 c0 -31 -67 -91 -117 -105 -47 -13 -74 -14 -107
-1 -22 8 -24 12 -15 32 9 20 17 23 68 23 51 0 61 4 101 38 50 43 70 47 70 13z
m-290 -35 c0 -23 -57 -81 -97 -97 -67 -29 -173 -9 -173 31 0 22 17 27 57 16
50 -14 101 0 153 44 43 36 60 37 60 6z m-322 -12 c6 -55 -127 -131 -196 -112
-23 6 -26 12 -16 37 4 10 18 16 35 16 45 0 94 25 120 59 27 37 53 37 57 0z
m-564 5 c29 -11 18 -50 -23 -87 -65 -59 -169 -73 -213 -29 -23 22 -14 57 11
46 69 -28 150 -8 186 46 11 16 21 30 22 30 1 0 8 -3 17 -6z m-301 -28 c8 -21
-27 -71 -67 -95 -75 -47 -214 -33 -186 18 8 15 18 18 54 14 61 -7 87 1 136 42
46 39 55 42 63 21z m-301 -31 c-10 -59 -108 -111 -193 -103 -54 6 -74 22 -59
48 7 11 23 14 72 12 61 -3 66 -2 108 33 46 38 77 43 72 10z m-547 -41 c45 -26
117 -24 152 4 56 45 70 52 87 46 22 -8 20 -17 -10 -54 -75 -88 -221 -94 -306
-13 -47 45 -35 85 16 53 17 -10 45 -27 61 -36z m2678 17 c-30 -85 -190 -130
-266 -75 -28 20 -32 31 -19 52 7 10 14 10 38 -3 16 -8 52 -15 79 -15 44 0 58
6 104 40 38 29 56 37 62 29 4 -7 5 -19 2 -28z m-345 -15 c5 -26 -71 -93 -120
-107 -39 -10 -113 -8 -124 4 -3 3 -2 16 1 30 6 22 10 24 45 20 54 -7 80 1 131
42 47 37 62 39 67 11z m-291 -33 c6 -17 -52 -78 -91 -97 -44 -21 -134 -21
-164 0 -24 17 -26 22 -13 42 6 11 17 11 50 2 56 -15 91 -6 143 36 43 34 68 40
75 17z m-321 -8 c16 -40 -76 -110 -158 -121 -35 -5 -46 -2 -62 15 -15 16 -16
24 -7 35 6 8 21 12 31 9 36 -9 87 7 131 42 49 39 57 41 65 20z m-292 -18 c26
-19 8 -49 -47 -82 -60 -34 -131 -44 -157 -20 -30 27 -11 50 38 47 47 -4 106
19 124 47 15 25 18 25 42 8z m-574 -25 c0 -25 -47 -72 -94 -93 -79 -36 -177
-19 -162 29 6 19 12 20 56 15 64 -7 88 0 140 41 45 36 60 38 60 8z m308 1 c4
-28 -57 -77 -114 -93 -79 -22 -166 9 -143 51 8 15 14 17 35 9 58 -22 110 -11
168 37 32 27 50 26 54 -4z m-608 -15 c0 -23 -43 -68 -83 -87 -80 -39 -188 -22
-173 26 6 17 13 19 56 15 63 -6 88 1 134 37 35 28 66 32 66 9z m-300 -13 c0
-22 -41 -65 -81 -85 -78 -40 -209 -17 -258 47 -21 25 -18 53 4 53 7 0 30 -12
51 -26 81 -55 144 -55 215 0 41 33 69 37 69 11z m2430 -2 c0 -27 -39 -71 -83
-92 -89 -43 -207 -14 -207 51 l0 28 33 -20 c36 -22 115 -27 150 -8 12 6 37 24
56 39 35 29 51 30 51 2z m-350 -33 c0 -29 -65 -86 -115 -100 -40 -11 -119 -9
-131 3 -3 2 0 15 6 28 10 21 17 24 51 21 55 -6 79 2 129 42 46 36 60 38 60 6z
m-290 -29 c0 -28 -37 -69 -82 -92 -74 -38 -188 -21 -188 27 0 21 14 24 55 13
53 -15 96 -4 146 36 49 39 69 44 69 16z m-320 -15 c0 -15 -14 -37 -39 -59 -77
-70 -208 -77 -187 -10 5 14 17 18 59 18 47 0 60 5 102 38 57 43 65 45 65 13z
m-280 -16 c12 -8 8 -17 -26 -49 -63 -60 -172 -82 -195 -40 -16 30 0 41 65 42
46 2 60 7 83 30 29 29 48 33 73 17z m-583 -16 c6 -19 -48 -76 -92 -95 -76 -35
-190 -15 -166 29 8 14 22 16 73 14 60 -3 66 -2 108 32 44 36 70 42 77 20z
m308 6 c20 -33 -97 -110 -168 -110 -40 0 -97 26 -97 45 1 26 17 37 38 26 47
-25 138 -7 171 33 15 18 47 21 56 6z m-616 -14 c10 -11 5 -22 -21 -52 -41 -46
-82 -64 -151 -64 -67 0 -95 17 -77 47 11 17 18 19 50 12 48 -11 91 2 137 40
43 35 46 36 62 17z m-305 -46 c-50 -83 -176 -107 -278 -52 -51 28 -77 65 -59
83 7 7 32 -1 79 -26 88 -47 132 -45 201 9 35 27 49 33 59 25 11 -9 11 -16 -2
-39z m2443 23 c6 -17 -53 -79 -91 -97 -49 -23 -131 -21 -172 5 -35 21 -40 34
-25 58 7 11 13 10 35 -4 37 -24 116 -24 151 1 81 57 94 62 102 37z m-347 -28
c0 -24 -53 -77 -95 -96 -41 -19 -120 -25 -142 -11 -7 4 -10 17 -6 30 5 19 12
22 62 22 50 0 62 4 110 40 52 39 71 43 71 15z m-292 -33 c2 -7 -16 -32 -40
-56 -33 -33 -55 -46 -93 -54 -83 -17 -149 6 -138 49 5 17 10 19 32 12 14 -4
47 -8 72 -8 38 0 54 7 94 38 49 37 65 42 73 19z m-320 -14 c2 -9 -11 -32 -28
-51 -48 -55 -171 -88 -199 -53 -22 27 -2 44 58 48 50 3 65 10 102 41 44 38 62
42 67 15z m-280 -26 c2 -7 -12 -27 -31 -45 -55 -52 -152 -73 -188 -41 -30 27
-7 50 46 46 44 -4 91 14 115 43 15 18 51 16 58 -3z m-588 -11 c0 -52 -93 -111
-176 -111 -61 0 -92 18 -77 45 9 15 22 18 75 16 61 -2 67 0 107 33 48 40 71
46 71 17z m308 10 c19 -12 -32 -69 -83 -92 -66 -30 -127 -25 -183 17 -2 1 1
11 7 23 10 17 15 19 42 9 46 -16 113 -5 149 26 33 27 47 31 68 17z m-608 -26
c0 -22 -41 -65 -81 -85 -25 -13 -58 -20 -97 -20 -68 0 -91 15 -73 49 10 17 15
18 47 10 48 -14 85 -4 135 36 41 32 69 36 69 10z m-581 -26 c85 -52 140 -51
206 1 75 59 107 19 34 -43 -52 -45 -111 -61 -178 -46 -66 14 -131 61 -131 94
0 32 9 31 69 -6z m2711 7 c0 -33 -68 -92 -122 -106 -84 -23 -168 7 -168 61 l0
29 37 -20 c66 -35 134 -25 194 29 40 37 59 39 59 7z m-350 -30 c0 -57 -129
-126 -204 -110 -44 9 -47 12 -34 40 10 21 16 24 41 18 47 -10 91 4 130 41 44
41 67 45 67 11z m-290 -35 c0 -10 -11 -30 -25 -45 -55 -59 -167 -84 -225 -49
-24 14 -27 19 -18 39 9 19 14 21 35 13 34 -13 100 -11 126 2 12 7 37 25 55 41
35 30 52 29 52 -1z m-310 -11 c0 -18 -55 -72 -91 -90 -43 -23 -131 -27 -147
-7 -17 20 12 51 41 43 36 -9 83 9 129 48 32 27 44 33 55 25 7 -6 13 -15 13
-19z m-290 -10 c13 -8 12 -13 -6 -37 -34 -46 -91 -73 -156 -73 -61 0 -73 8
-63 41 6 18 12 20 45 14 43 -7 95 11 124 44 21 23 33 26 56 11z m-582 -24 c6
-30 -69 -92 -128 -106 -81 -20 -150 2 -130 41 9 15 18 18 55 13 59 -9 85 -1
135 41 45 37 63 40 68 11z m309 7 c10 -27 -64 -89 -123 -101 -67 -15 -144 2
-144 31 1 32 16 39 59 26 51 -15 108 -1 143 36 27 28 56 32 65 8z m-616 -41
c-38 -71 -163 -113 -236 -80 -28 13 -29 17 -12 38 8 11 31 15 78 15 63 0 68 2
109 39 37 34 44 36 57 23 11 -11 12 -19 4 -35z m-592 5 c66 -43 76 -47 128
-47 44 0 57 5 94 35 64 55 104 36 52 -25 -35 -42 -96 -70 -153 -70 -84 0 -193
71 -176 115 7 20 15 19 55 -8z m2724 2 c14 -23 -17 -65 -71 -96 -34 -20 -58
-26 -101 -26 -65 0 -126 26 -117 49 3 9 6 22 6 29 0 11 9 10 43 -5 74 -34 145
-19 187 39 23 33 37 36 53 10z m-345 -32 c10 -53 -89 -117 -181 -117 -61 0
-69 5 -60 39 5 20 11 22 40 18 56 -9 94 3 132 44 37 40 63 46 69 16z m-288
-44 c0 -9 -18 -33 -40 -54 -51 -49 -127 -68 -194 -49 -48 13 -52 19 -36 50 9
16 15 18 36 10 64 -25 143 -1 179 54 14 21 21 24 36 15 10 -5 19 -17 19 -26z
m-322 -7 c9 -45 -99 -116 -178 -116 -61 0 -76 10 -59 39 11 17 24 21 62 21 56
0 97 19 121 55 19 29 49 30 54 1z m-270 -8 c4 -23 -47 -79 -93 -99 -40 -19
-101 -24 -142 -13 -21 6 -21 7 -6 30 13 20 23 24 69 24 47 0 58 4 100 40 47
41 67 46 72 18z m-280 -15 c4 -25 -49 -80 -95 -99 -40 -17 -123 -18 -158 -2
-28 13 -29 15 -12 45 9 16 16 20 27 13 23 -15 108 -12 138 5 15 8 38 26 51 40
27 29 45 28 49 -2z m-318 -18 c0 -25 -56 -80 -99 -96 -35 -14 -125 -13 -150 1
-20 10 -20 12 -5 35 13 21 19 22 45 13 45 -15 92 -2 145 42 51 42 64 43 64 5z
m-302 -9 c4 -20 -40 -71 -78 -91 -40 -20 -105 -27 -149 -15 -38 10 -40 12 -29
36 10 22 15 24 54 18 60 -9 97 2 139 42 39 37 58 39 63 10z m-300 -10 c5 -26
-54 -83 -105 -102 -69 -26 -160 -6 -220 49 -26 23 -30 55 -8 63 8 3 34 -9 59
-26 78 -56 164 -52 221 11 28 32 48 34 53 5z m2389 -158 c1 -134 13 -256 29
-310 6 -22 -53 -57 -61 -36 -12 36 -25 198 -25 325 0 135 1 143 22 157 12 9
25 16 28 16 3 0 6 -69 7 -152z"/>
</g>
</svg>
